<svg width="18" height="18" viewBox="0 0 18 18" fill="none" xmlns="http://www.w3.org/2000/svg">
<path d="M4.55554 10C5.10783 10 5.55554 9.55228 5.55554 9C5.55554 8.44772 5.10783 8 4.55554 8C4.00326 8 3.55554 8.44772 3.55554 9C3.55554 9.55228 4.00326 10 4.55554 10Z" fill="white"/>
<path d="M4.55554 13.5557C5.10783 13.5557 5.55554 13.1079 5.55554 12.5557C5.55554 12.0034 5.10783 11.5557 4.55554 11.5557C4.00326 11.5557 3.55554 12.0034 3.55554 12.5557C3.55554 13.1079 4.00326 13.5557 4.55554 13.5557Z" fill="white"/>
<path d="M4.55554 6.44434C5.10783 6.44434 5.55554 5.99662 5.55554 5.44434C5.55554 4.89205 5.10783 4.44434 4.55554 4.44434C4.00326 4.44434 3.55554 4.89205 3.55554 5.44434C3.55554 5.99662 4.00326 6.44434 4.55554 6.44434Z" fill="white"/>
<path d="M13.4445 4.55566H8.11112C7.6202 4.55566 7.22223 4.95363 7.22223 5.44455C7.22223 5.93547 7.6202 6.33344 8.11112 6.33344H13.4445C13.9354 6.33344 14.3333 5.93547 14.3333 5.44455C14.3333 4.95363 13.9354 4.55566 13.4445 4.55566Z" fill="white"/>
<path d="M13.4445 8.11108H8.11112C7.6202 8.11108 7.22223 8.50905 7.22223 8.99997C7.22223 9.49089 7.6202 9.88886 8.11112 9.88886H13.4445C13.9354 9.88886 14.3333 9.49089 14.3333 8.99997C14.3333 8.50905 13.9354 8.11108 13.4445 8.11108Z" fill="white"/>
<path d="M13.4445 11.6667H8.11112C7.6202 11.6667 7.22223 12.0647 7.22223 12.5556C7.22223 13.0466 7.6202 13.4445 8.11112 13.4445H13.4445C13.9354 13.4445 14.3333 13.0466 14.3333 12.5556C14.3333 12.0647 13.9354 11.6667 13.4445 11.6667Z" fill="white"/>
<path d="M15 1H3C1.89543 1 1 1.89543 1 3V15C1 16.1046 1.89543 17 3 17H15C16.1046 17 17 16.1046 17 15V3C17 1.89543 16.1046 1 15 1Z" stroke="white" stroke-width="2" stroke-linecap="round" stroke-linejoin="round"/>
</svg>
